<svg xmlns="http://www.w3.org/2000/svg" viewBox="0 0 1000 1000" xml:space="preserve">
    <switch>
        <g>
            <circle fill="#382B73" cx="500" cy="500" r="398"/>
            <circle fill="#473080" cx="500" cy="500" r="344.3"/>
            <path fill="#382B73" d="M588.9 683.6c-11.5-9.7-21.2-21.4-28.7-34.4-8.7-15-14.5-31.6-16.8-48.7-2.9-21.5-.5-43.6-4-65-4.2-25.3-17.1-48.9-35.6-66.6 1.8-1.6 3.6-3.3 5.3-5 1.6-1.6 3.2-3.2 4.7-4.9 3.2-3.5 6.1-7.1 8.7-10.9.9-1.2 1.7-2.5 2.5-3.8 6.3-10.2 10.2-21.5 9.9-33.3-.1-3.3-.5-6.7-1.6-9.9-.1-.2-.2-.5-.2-.7-.1-.3-.2-.6-.3-.8-.2-.5-.3-.9-.5-1.3v-.1c-.1-.2-.1-.3-.2-.5v-.1c-.1-.1-.1-.3-.2-.4v-.1c-.1-.1-.1-.2-.2-.3v-.1c-.1-.1-.1-.2-.2-.2l-.1-.1-.2-.2-.1-.1c-.1 0-.1-.1-.2-.1h-.1c-.1 0-.1 0-.2-.1H529.8c-.1 0-.2.1-.3.1 0 0-.1 0-.1.1-.1 0-.2.1-.3.2 0 0-.1 0-.1.1-.1.1-.3.1-.4.2 0 0-.1 0-.1.1-.2.1-.3.2-.5.3-.2.1-.3.2-.5.3-6.1 3.9-10.3 8.8-17.4 11.9-1.1.5-3.2.9-6 1.4-19.7 3-33.5 17.8-35.9 34.8-9.6-4.2-19.8-7.3-30.2-8.7l47-67.6c4.9-7.1 10.4-13.8 16.3-20 4.6-4.8 9.5-9.3 14.7-13.5 1.5-1.2 2.9-2.4 4.4-3.5l50.1-38c11.2-8.5 20.6-19.3 27.5-31.7 1.3-2.2 2.4-4.5 3.5-6.9.8-1.6 1.5-3.3 2.2-5 .8-1.9 1.5-3.8 2.2-5.8v-.1c.2-.5.2-1 .2-1.4 0-1.1-.6-2-1.4-2.6-.1-.1-.2-.1-.2-.2h-.1s-.1 0-.1-.1c-.1-.1-.2-.1-.4-.2-.1 0-.1 0-.2-.1-.1 0-.2-.1-.3-.1-.1 0-.2 0-.2-.1-.1 0-.2-.1-.3-.1h-1.2c-.1 0-.2.1-.4.1-.1 0-.1.1-.2.1-.1.1-.2.1-.3.2-.1 0-.1.1-.2.1l-.3.3c-.1 0-.1.1-.2.1-.2.1-.3.3-.5.5l-2.1 2.7c-.3.4-.6.7-.9 1.1-.4.5-.8 1-1.2 1.4-.4.5-.8 1-1.3 1.5-.3.3-.6.7-.9 1-.5.6-1 1.1-1.5 1.7-.2.2-.4.5-.6.7l-1.8 1.8c-.1.2-.3.3-.5.5-.6.7-1.3 1.3-2 2l-.3.3c-.7.7-1.4 1.4-2.1 2l-.1.1c-.8.7-1.5 1.4-2.3 2.1-6.4 5.6-13.3 10.5-20.6 14.6-1.3.7-2.6 1.4-4 2.1l-58.3 29.7c-2.6 1.3-5.1 2.7-7.6 4.2-7.4 4.5-14.4 9.9-20.7 15.9-3.8 3.7-7.4 7.6-10.7 11.8L425.9 385c7.9-14.9 16.3-29.7 22.5-45.4 5.6-14.4 9.3-29.5 13-44.6.2-1 .5-1.9.7-2.9.5-2 1-4.1 1.5-6.1 2.3-9.5 4.8-18.9 7.9-28.1 4.7-14.2 11.1-28.3 22-38.5.9-.8 1.9-1.7 2.7-2.7.1-.2.3-.3.4-.5 1.2-1.4 2.1-3 2.2-4.9v-1.2c0-.2 0-.4-.1-.5 0-.1 0-.2-.1-.2 0-.2-.1-.3-.1-.4 0-.1 0-.1-.1-.2-.1-.2-.1-.3-.2-.4 0 0 0-.1-.1-.1-.1-.2-.2-.3-.4-.4 0 0-.1 0-.1-.1-.1-.1-.2-.2-.3-.2-.1 0-.1-.1-.2-.1-.1-.1-.2-.1-.3-.1h-.2c-.1 0-.3-.1-.4-.1h-.9c-.2 0-.4 0-.6.1h-.2c-.2 0-.3.1-.5.1-.1 0-.2 0-.2.1-.2 0-.3.1-.5.2-.1 0-.1 0-.2.1-.2.1-.5.2-.7.3h-.1c-.3.1-.5.2-.8.3-.1 0-.1.1-.2.1l-.6.3c-.1 0-.2.1-.3.1l-.6.3c-.1 0-.2.1-.3.1-.2.1-.4.2-.6.4-.1 0-.1.1-.2.1-.3.2-.5.3-.8.5-.1 0-.1.1-.1.1-.2.1-.4.3-.7.4-.1.1-.2.1-.3.2-.2.1-.4.2-.5.4-.1.1-.2.1-.3.2-.2.1-.4.2-.5.4-.1.1-.2.1-.2.2-.2.2-.5.3-.7.5l-.1.1c-.2.2-.5.3-.7.5-.1.1-.2.1-.3.2-.1.1-.3.2-.4.3-.1.1-.2.1-.3.2-.1.1-.3.2-.4.3-.1.1-.2.1-.3.2l-.3.3c-.1.1-.2.1-.3.2l-.1.1c-.2.1-.4.3-.5.4-.2.1-.3.3-.5.4h-.1c-.1.1-.3.2-.4.3l-.3.3c-.1.1-.2.2-.3.2 0 0-.1 0-.1.1-.1 0-.1.1-.1.1-6.7 5.6-12.7 12.1-18.1 19-.9 1.2-1.8 2.3-2.7 3.5-.3.4-.7.9-1 1.3-10.3 14.3-18.4 30-25.9 46-2.1 4.5-4.2 8.9-6.2 13.4-14.7 32.3-29.8 64.8-41 98.4-1.1 3.4-2.2 6.7-3.2 10.1-5.1 16.6-9.2 33.5-11.7 50.8-11.4 11.1-21.2 24.4-31.9 36.1-6.2 6.7-12.4 13.5-19.6 19-11.4 8.7-25 14.3-35.8 23.7-10.6 9.1-18 21.7-21 35.4-1.3 5.8-1.7 12.1.7 17.6 1.9 4.3 5.4 7.8 9.2 10.5 17.5 12.5 41.4 11.1 62.2 5.7 16.4-4.3 32.4-10.7 48.9-13.8 4.5-.8 9-1.4 13.6-1.7 23.1 28.3 28.9 69.6 14.6 103.1-8.4 19.6-29.6 56.6-29.6 56.6h297.6c.2.1-64.6-47.2-89.3-68.1z"/>
            <g>
                <path fill="#FFF" d="M471.2 446.9c-11.3-24.3 4.9-52 32.7-56.3 2.8-.4 4.9-.9 6-1.4 7.1-3.1 11.3-8 17.4-11.9 3.7-2.3 3.8-1.7 5.6 3 1.3 3.4 1.7 7 1.8 10.6.6 23.6-15.5 44.9-34.3 60.6-4.2 3.5-8.8 6.9-14.3 7.6-8.8 1.4-14.9-12.2-14.9-12.2z"/>
                <path fill="#E6E7E8" d="M534.8 391.1c-.1-3.6-.5-7.2-1.8-10.6-1.7-4.6-1.9-5.3-5.1-3.3.4 2.2.6 4.4.7 6.6.6 23.6-15.5 44.9-34.3 60.6-4.2 3.5-8.8 6.9-14.3 7.6-4.8.7-9.4-.9-13.2-3.7 3.5 7 11.4 12.3 19.5 11.2 5.5-.8 10.1-4.2 14.3-7.6 18.7-15.9 34.7-37.2 34.2-60.8z"/>
                <path fill="#009ADD" d="M370.2 456.2c.8 1.9 2.1 3.6 3.9 4.9 4.2 2.9 9.8 2.5 14.8 1.5 3.1-.6 6.2-1.4 8.6-3.3 5.7-4.5 5.1-13.1 5-20.4-.3-21.5 7.5-42.3 17-61.5 9.5-19.3 21-37.6 28.8-57.6 10.3-26.4 14.1-54.8 23-81.7 4.7-14.2 11.1-28.3 22-38.5 2.4-2.3 5.2-4.7 5.3-8 .4-11.3-17.5 3.9-19.6 5.7-8.2 6.9-15.4 15.1-21.7 23.8-13.2 18.3-22.8 39-32.1 59.4-23.6 51.6-47.9 103.9-56.1 160.1-.6 5.1-.9 11 1.1 15.6z"/>
                <path fill="#136DA0" d="M481.7 195.1c-8.8 9.8-14.3 22.3-18.4 34.8-8.9 26.9-12.7 55.3-23 81.7-7.8 20-19.3 38.4-28.8 57.6-9.5 19.3-17.3 40.1-17 61.5.1 7.3.6 15.8-5 20.4-2.4 1.9-5.6 2.7-8.6 3.3-3.7.7-7.6 1.1-11.2.2.2.5.4 1.1.6 1.6.8 1.9 2.1 3.6 3.9 4.9 4.2 2.9 9.8 2.5 14.8 1.5 3.1-.6 6.2-1.4 8.6-3.3 5.7-4.5 5.1-13.1 5-20.4-.3-21.5 7.5-42.3 17-61.5 9.5-19.3 21-37.6 28.8-57.6 10.3-26.4 14.1-54.8 23-81.7 4.7-14.2 11.1-28.3 22-38.5 2.4-2.3 5.2-4.7 5.3-8 .4-9.4-11.4-.9-17 3.5z"/>
                <path fill="#1CAEE4" d="M372.9 458.9c-2-4.6-1.7-10.5-1-15.7C380 387 404.4 334.7 428 283.1c9.3-20.5 18.9-41.1 32.1-59.4 6.3-8.7 13.5-16.9 21.7-23.8 1.6-1.3 11.8-10 16.9-9.8-1.2-8.4-17.6 5.5-19.5 7.2-8.3 6.9-15.4 15.1-21.7 23.8-13.2 18.3-22.8 39-32.1 59.4-23.6 51.6-47.9 103.9-56.1 160.1-.8 5.2-1 11.1 1 15.7.8 1.9 2.1 3.6 3.9 4.9-.5-.8-1-1.6-1.3-2.3z"/>
                <path fill="#1CAEE4" d="M373.4 436.7 460 318.5c10.7-13.4 24-24.3 39-32l58.3-29.7c16.4-8.4 30.8-20.5 42.1-35.6 2.5-3.3 7.7-.6 6.3 3.3v.1c-6.8 19.7-19.1 36.9-35.5 49.3l-50.1 38c-13.6 10.3-25.6 22.9-35.4 37.1l-54.2 78-57.1 9.7z"/>
                <path fill="#009ADD" d="M599.4 221.2c-5.2 6.9-11.1 13.3-17.5 18.9-7.1 13.3-16.8 24.9-28.7 33.9l-50.1 38c-13.6 10.3-25.6 22.9-35.4 37.1l-54.2 78-37.7 6.3-2.4 3.3 57.1-9.6 54.2-78c9.9-14.2 21.8-26.7 35.4-37.1l50.1-38c16.3-12.4 28.7-29.6 35.5-49.3v-.1c1.4-3.9-3.8-6.7-6.3-3.4z"/>
                <path fill="#27C1E6" d="M463 321.5c10.7-13.4 24-24.3 39-32l58.3-29.7c16.4-8.4 30.8-20.5 42.1-35.6.9-1.3 2.3-1.6 3.5-1.4-.4-2.9-4.4-4.4-6.5-1.6-11.2 15-25.6 27.2-42.1 35.6L499 286.5c-15 7.6-28.3 18.6-39 32l-86.6 118.2 5.9-1L463 321.5z"/>
                <path fill="#FFF" d="M678.4 731.8H380.8s21.2-37 29.6-56.6c14.3-33.6 8.5-74.9-14.6-103.1-4.6.2-9.1.8-13.6 1.7-16.5 3.1-32.5 9.5-48.9 13.8-20.8 5.4-44.7 6.8-62.2-5.7-3.9-2.7-7.4-6.2-9.2-10.5-2.4-5.5-2-11.8-.7-17.6 3-13.6 10.5-26.2 21-35.4 10.8-9.4 24.5-14.9 35.8-23.7 7.2-5.6 13.4-12.3 19.6-19 19.7-21.5 36.3-48.7 65.9-57 27.7-7.8 57.5.8 81.4 15.5 28.6 17.6 49.1 48 54.6 81.2 3.5 21.4 1.1 43.5 4 65 2.3 17.1 8.1 33.8 16.8 48.7 7.5 13 17.3 24.7 28.7 34.4 24.6 21 89.4 68.3 89.4 68.3z"/>
                <path fill="#1CAEE4" d="M362.8 510.8c-2 1.1-4.1-1.3-2.7-3.1 4.2-5.5 8-11.4 12.2-16.9 6.7-8.8 14.5-17.2 24.6-21.7 6.8-3 14.3-4.3 20.6-8.3 4.5-2.9 8-7.2 10.9-11.6.8-1.1 2.8-6.1 4.1-6.3 2.9-.5.6 4.6.1 5.7-6.4 15.1-15.3 29.4-28.1 39.6-12.4 9.7-27.7 15.1-41.7 22.6z"/>
                <path fill="#27C1E6" d="M376.1 494.6c6.7-8.8 14.5-17.2 24.6-21.7 6.8-3 14.3-4.3 20.6-8.3 2.4-1.6 4.5-3.5 6.4-5.6 1.8-3.4 3.5-7 5-10.5.5-1.1 2.8-6.2-.1-5.7-1.3.2-3.4 5.2-4.1 6.3-2.9 4.5-6.4 8.7-10.9 11.6-6.2 4-13.8 5.3-20.6 8.3-10.1 4.5-17.9 12.9-24.6 21.7-4.2 5.5-8 11.3-12.2 16.9-1.4 1.8.7 4.2 2.7 3.1.9-.5 1.8-.9 2.6-1.4 3.5-4.8 6.9-9.8 10.6-14.7z"/>
                <path fill="#D1D3D4" d="m275.1 553.5 2.5-5.1c.7-1.4 2.1-2.3 3.6-2.3h13.6c.9 0 1.7-.3 2.4-.8 3.3-2.5 7.8 1.1 6 4.9l-1.4 3.1c-.6 1.4-1.9 2.3-3.4 2.3l-7.5.4c-.3 0-.6.1-.9.1l-10.2 2.9c-3.3 1.1-6.2-2.3-4.7-5.5z"/>
                <g>
                    <path fill="#FFF" d="M441.3 511.1c.2.2 2 2.8 3.2 6.9-1.9-4.2-3.1-6.7-3.2-6.9z"/>
                </g>
                <g>
                    <path fill="#D1D3D4" d="M485.4 675.3c-.2 26-3.1 44.1-6.6 56.5h-98s21.2-37 29.6-56.6c14.3-33.6 8.5-74.9-14.6-103.1-4.6.2-9.1.8-13.6 1.7 10.3-2.7 28.3-8.9 46.6-21.8 18.1-12.7 18-26.1 15.7-33.9 10.3 22.8 41.5 97.5 40.9 157.2z"/>
                </g>
            </g>
        </g>
    </switch>
</svg>